<svg width="40" height="40" viewBox="0 0 40 40" fill="none" xmlns="http://www.w3.org/2000/svg">
<path d="M29.9254 17.585C28.7971 18.7203 28.2332 20.2992 28.3872 21.8924L28.3607 21.8659C28.519 23.7408 27.8427 25.59 26.5123 26.9204C25.1818 28.2509 23.3326 28.9271 21.4577 28.7689L21.4842 28.7953C19.2142 28.5841 17.0555 29.8188 16.0867 31.8825C15.118 33.9463 15.5473 36.3959 17.1601 38.0072C18.7729 39.6186 21.2228 40.0456 23.2857 39.075C25.3486 38.1044 26.5814 35.9446 26.368 33.6748L26.396 33.7012C26.2377 31.8264 26.914 29.9771 28.2444 28.6467C29.5748 27.3163 31.4241 26.64 33.2989 26.7983L33.271 26.7718C35.7658 26.9962 38.0872 25.475 38.8774 23.098C39.6676 20.7211 38.719 18.1128 36.5864 16.7988C34.4538 15.4849 31.6976 15.8104 29.9298 17.585H29.9254Z" fill="#5454D4"/>
<path d="M19.0769 25.3277L19.0489 25.3012C20.6431 25.4618 22.2252 24.8981 23.3586 23.7656C24.492 22.633 25.0569 21.0514 24.8974 19.4571L24.9254 19.4836C24.7671 17.6087 25.4434 15.7595 26.7738 14.429C28.1042 13.0986 29.9535 12.4224 31.8283 12.5806L31.8004 12.5541C34.0706 12.7673 36.2306 11.5339 37.2009 9.47048C38.1711 7.40702 37.743 4.95673 36.1307 3.3444C34.5184 1.73208 32.0681 1.30404 30.0046 2.27426C27.9412 3.24448 26.7078 5.40455 26.921 7.67474L26.8945 7.64679C27.0533 9.52176 26.3772 11.3713 25.0466 12.7019C23.7161 14.0324 21.8665 14.7085 19.9916 14.5497L20.018 14.5777C18.4238 14.417 16.8418 14.9808 15.7084 16.1133C14.575 17.2459 14.0101 18.8275 14.1695 20.4218L14.143 20.3953C14.3008 22.27 13.6243 24.119 12.294 25.4493C10.9637 26.7796 9.11479 27.456 7.24009 27.2983L7.26656 27.3247C4.99638 27.1115 2.83631 28.3449 1.86609 30.4084C0.895871 32.4719 1.3239 34.9222 2.93623 36.5345C4.54856 38.1468 6.99885 38.5748 9.06231 37.6046C11.1258 36.6344 12.3592 34.4743 12.146 32.2041L12.1739 32.2306C12.0157 30.3558 12.6919 28.5065 14.0223 27.1761C15.3528 25.8457 17.202 25.1694 19.0769 25.3277Z" fill="#FF7143"/>
<path d="M9.22099 22.3762C10.3495 21.2412 10.9129 19.6619 10.7578 18.0689L10.7857 18.0953C10.6273 16.2199 11.304 14.3701 12.6351 13.0396C13.9662 11.7091 15.8163 11.0332 17.6916 11.1924L17.6636 11.1659C19.933 11.3785 22.0921 10.1452 23.0617 8.08243C24.0313 6.01962 23.6033 3.5703 21.9916 1.95857C20.3798 0.346835 17.9305 -0.0811702 15.8677 0.888458C13.8049 1.85809 12.5716 4.01711 12.7842 6.28651L12.7578 6.26004C12.916 8.13487 12.2397 9.98413 10.9093 11.3145C9.5789 12.645 7.72964 13.3212 5.85481 13.163L5.88128 13.1894C3.38658 12.9657 1.06564 14.4873 0.275915 16.8643C-0.513813 19.2412 0.435108 21.8492 2.56768 23.1628C4.70026 24.4765 7.45632 24.1508 9.22393 22.3762H9.22099Z" fill="#5454D4"/>
</svg>
